<svg xmlns="http://www.w3.org/2000/svg" viewBox="0 0 95 90" width="95" height="90" fill="none" xmlns:c2pa="http://c2pa.org/manifest"><metadata><c2pa:manifest>AAAWgmp1bWIAAAAeanVtZGMycGEAEQAQgAAAqgA4m3EDYzJwYQAAABZcanVtYgAAAEdqdW1kYzJtYQARABCAAACqADibcQN1cm46YzJwYTo1MjljNTQzNS1hMzMxLTQ5ZDQtOWRlNy03ZGQ3ZDNkZmU1MTgAAAADl2p1bWIAAAApanVtZGMyYXMAEQAQgAAAqgA4m3EDYzJwYS5hc3NlcnRpb25zAAAAALxqdW1iAAAARGp1bWRjYm9yABEAEIAAAKoAOJtxE2MycGEuaW5ncmVkaWVudC52MwAAAAAYYzJzaD6GVXBgGSrU6Jy7Kv/GKPEAAABwY2JvcqNpZGM6Zm9ybWF0bWltYWdlL3N2Zyt4bWxqaW5zdGFuY2VJRHgseG1wOmlpZDpkM2Q4NGU3Ny03NzEzLTQ5ZjEtOTg3Yi02ZTRjYmRmMTVhNDNscmVsYXRpb25zaGlwaHBhcmVudE9mAAAB4mp1bWIAAABBanVtZGNib3IAEQAQgAAAqgA4m3ETYzJwYS5hY3Rpb25zLnYyAAAAABhjMnNome2PZ9ZHIYP3G+jkMLFkKAAAAZljYm9yomdhY3Rpb25zgqJmYWN0aW9ua2MycGEub3BlbmVkanBhcmFtZXRlcnOha2luZ3JlZGllbnRzgaJjdXJseC1zZWxmI2p1bWJmPWMycGEuYXNzZXJ0aW9ucy9jMnBhLmluZ3JlZGllbnQudjNkaGFzaFggwYvWYhsjktkgabHGoVCgi3bAxChVTw1QHwHjVNqJ/PSkZmFjdGlvbngdY29tLmFudGhyb3BpYy5jbGF1ZGUucHJvdmlkZWRqcGFyYW1ldGVyc6F4H2NvbS5hbnRocm9waWMub3JpZ2luLWNvbmZpZGVuY2VndW5rbm93bmtkZXNjcmlwdGlvbnhmQ2xhdWRlIHByb3ZpZGVkIHRoaXMgZmlsZSBhdCB0aGUgcmVxdWVzdCBvZiBhIHVzZXIgYW5kIG1heSBoYXZlIGNyZWF0ZWQgb3IgbW9kaWZpZWQgdGhlIGZpbGUgY29udGVudHMubXNvZnR3YXJlQWdlbnShZG5hbWVmQ2xhdWRlcmFsbEFjdGlvbnNJbmNsdWRlZPUAAADIanVtYgAAAEBqdW1kY2JvcgARABCAAACqADibcRNjMnBhLmhhc2guZGF0YQAAAAAYYzJzaPXej4h3qOZOgyb433baQ/AAAACAY2JvcqVjYWxnZnNoYTI1NmNwYWRNAAAAAAAAAAAAAAAAAGRoYXNoWCCOrNYgmhrMmo4f0GTMyAJjK88/MhpMlhAze5Hufd+hn2RuYW1lbmp1bWJmIG1hbmlmZXN0amV4Y2x1c2lvbnOBomVzdGFydBieZmxlbmd0aBkeBAAAAj5qdW1iAAAAJ2p1bWRjMmNsABEAEIAAAKoAOJtxA2MycGEuY2xhaW0udjIAAAACD2Nib3KlY2FsZ2ZzaGEyNTZpc2lnbmF0dXJleE1zZWxmI2p1bWJmPS9jMnBhL3VybjpjMnBhOjUyOWM1NDM1LWEzMzEtNDlkNC05ZGU3LTdkZDdkM2RmZTUxOC9jMnBhLnNpZ25hdHVyZWppbnN0YW5jZUlEeCx4bXA6aWlkOjFiOGNkZWIxLTA1OGYtNGMzNS04NTBjLWI3YzQ0ZGY2NjJhNnJjcmVhdGVkX2Fzc2VydGlvbnODomN1cmx4LXNlbGYjanVtYmY9YzJwYS5hc3NlcnRpb25zL2MycGEuaW5ncmVkaWVudC52M2RoYXNoWCDBi9ZiGyOS2SBpscahUKCLdsDEKFVPDVAfAeNU2on89KJjdXJseCpzZWxmI2p1bWJmPWMycGEuYXNzZXJ0aW9ucy9jMnBhLmFjdGlvbnMudjJkaGFzaFggwKrmGpQbTmhaODON1h3ZnFVX6kttfk6X5/xTD4yuRKOiY3VybHgpc2VsZiNqdW1iZj1jMnBhLmFzc2VydGlvbnMvYzJwYS5oYXNoLmRhdGFkaGFzaFggAAjpVfhaGUcEJirvcC1T9U3BZdqaYni11ligym3ducB0Y2xhaW1fZ2VuZXJhdG9yX2luZm+jZG5hbWVvQW50aHJvcGljIEZpbGVzZ3ZlcnNpb25lMS4wLjBrc3BlY1ZlcnNpb25lMi40LjAAABA4anVtYgAAAChqdW1kYzJjcwARABCAAACqADibcQNjMnBhLnNpZ25hdHVyZQAAABAIY2JvctKEWQISogEmGCFZAgowggIGMIIBjaADAgECAhRA5aAK7sI50L64g/oGQgU9Z1UTADAKBggqhkjOPQQDAzBJMRcwFQYDVQQKEw5BbnRocm9waWMsIFBCQzEuMCwGA1UEAxMlQW50aHJvcGljIENvbnRlbnQgQ3JlZGVudGlhbHMgUm9vdCBDQTAeFw0yNjA4MDcxODQzNTZaFw0yODA4MDYxOTQzNTZaMEQxFzAVBgNVBAoTDkFudGhyb3BpYywgUEJDMSkwJwYDVQQDEyBBbnRocm9waWMgQ2xhdWRlIENvbnRlbnQgU2lnbmluZzBZMBMGByqGSM49AgEGCCqGSM49AwEHA0IABJh6CmvLUBgFFNU0vUKlOVtE6djd17L5SuwX0LemFisBM3dkd/3cyjxFA3Qo5S46fX0/ihY0VZ7mfb9KF703t5OjWDBWMA4GA1UdDwEB/wQEAwIHgDAVBgNVHSUEDjAMBgorBgEEAYPoXgIBMAwGA1UdEwEB/wQCMAAwHwYDVR0jBBgwFoAUzlHiBIFOZFsj+OPEz5o+nMHXXMIwCgYIKoZIzj0EAwMDZwAwZAIwMXMdFJ4BetLLVY7ORuE9noqbbAZOZn/aArXyTwFAZfKrPzxF2vPoJNf1+UCdg1XGAjBwX1zd9WGqYkqmL5SFqw1QySjr1zJfpJM9+1rdDwSPLMOPOjKuiXjoU/pUUeG9RwmhY3BhZFkNngAAAAAAAAAAAAAAAAAAAAAAAAAAAAAAAAAAAAAAAAAAAAAAAAAAAAAAAAAAAAAAAAAAAAAAAAAAAAAAAAAAAAAAAAAAAAAAAAAAAAAAAAAAAAAAAAAAAAAAAAAAAAAAAAAAAAAAAAAAAAAAAAAAAAAAAAAAAAAAAAAAAAAAAAAAAAAAAAAAAAAAAAAAAAAAAAAAAAAAAAAAAAAAAAAAAAAAAAAAAAAAAAAAAAAAAAAAAAAAAAAAAAAAAAAAAAAAAAAAAAAAAAAAAAAAAAAAAAAAAAAAAAAAAAAAAAAAAAAAAAAAAAAAAAAAAAAAAAAAAAAAAAAAAAAAAAAAAAAAAAAAAAAAAAAAAAAAAAAAAAAAAAAAAAAAAAAAAAAAAAAAAAAAAAAAAAAAAAAAAAAAAAAAAAAAAAAAAAAAAAAAAAAAAAAAAAAAAAAAAAAAAAAAAAAAAAAAAAAAAAAAAAAAAAAAAAAAAAAAAAAAAAAAAAAAAAAAAAAAAAAAAAAAAAAAAAAAAAAAAAAAAAAAAAAAAAAAAAAAAAAAAAAAAAAAAAAAAAAAAAAAAAAAAAAAAAAAAAAAAAAAAAAAAAAAAAAAAAAAAAAAAAAAAAAAAAAAAAAAAAAAAAAAAAAAAAAAAAAAAAAAAAAAAAAAAAAAAAAAAAAAAAAAAAAAAAAAAAAAAAAAAAAAAAAAAAAAAAAAAAAAAAAAAAAAAAAAAAAAAAAAAAAAAAAAAAAAAAAAAAAAAAAAAAAAAAAAAAAAAAAAAAAAAAAAAAAAAAAAAAAAAAAAAAAAAAAAAAAAAAAAAAAAAAAAAAAAAAAAAAAAAAAAAAAAAAAAAAAAAAAAAAAAAAAAAAAAAAAAAAAAAAAAAAAAAAAAAAAAAAAAAAAAAAAAAAAAAAAAAAAAAAAAAAAAAAAAAAAAAAAAAAAAAAAAAAAAAAAAAAAAAAAAAAAAAAAAAAAAAAAAAAAAAAAAAAAAAAAAAAAAAAAAAAAAAAAAAAAAAAAAAAAAAAAAAAAAAAAAAAAAAAAAAAAAAAAAAAAAAAAAAAAAAAAAAAAAAAAAAAAAAAAAAAAAAAAAAAAAAAAAAAAAAAAAAAAAAAAAAAAAAAAAAAAAAAAAAAAAAAAAAAAAAAAAAAAAAAAAAAAAAAAAAAAAAAAAAAAAAAAAAAAAAAAAAAAAAAAAAAAAAAAAAAAAAAAAAAAAAAAAAAAAAAAAAAAAAAAAAAAAAAAAAAAAAAAAAAAAAAAAAAAAAAAAAAAAAAAAAAAAAAAAAAAAAAAAAAAAAAAAAAAAAAAAAAAAAAAAAAAAAAAAAAAAAAAAAAAAAAAAAAAAAAAAAAAAAAAAAAAAAAAAAAAAAAAAAAAAAAAAAAAAAAAAAAAAAAAAAAAAAAAAAAAAAAAAAAAAAAAAAAAAAAAAAAAAAAAAAAAAAAAAAAAAAAAAAAAAAAAAAAAAAAAAAAAAAAAAAAAAAAAAAAAAAAAAAAAAAAAAAAAAAAAAAAAAAAAAAAAAAAAAAAAAAAAAAAAAAAAAAAAAAAAAAAAAAAAAAAAAAAAAAAAAAAAAAAAAAAAAAAAAAAAAAAAAAAAAAAAAAAAAAAAAAAAAAAAAAAAAAAAAAAAAAAAAAAAAAAAAAAAAAAAAAAAAAAAAAAAAAAAAAAAAAAAAAAAAAAAAAAAAAAAAAAAAAAAAAAAAAAAAAAAAAAAAAAAAAAAAAAAAAAAAAAAAAAAAAAAAAAAAAAAAAAAAAAAAAAAAAAAAAAAAAAAAAAAAAAAAAAAAAAAAAAAAAAAAAAAAAAAAAAAAAAAAAAAAAAAAAAAAAAAAAAAAAAAAAAAAAAAAAAAAAAAAAAAAAAAAAAAAAAAAAAAAAAAAAAAAAAAAAAAAAAAAAAAAAAAAAAAAAAAAAAAAAAAAAAAAAAAAAAAAAAAAAAAAAAAAAAAAAAAAAAAAAAAAAAAAAAAAAAAAAAAAAAAAAAAAAAAAAAAAAAAAAAAAAAAAAAAAAAAAAAAAAAAAAAAAAAAAAAAAAAAAAAAAAAAAAAAAAAAAAAAAAAAAAAAAAAAAAAAAAAAAAAAAAAAAAAAAAAAAAAAAAAAAAAAAAAAAAAAAAAAAAAAAAAAAAAAAAAAAAAAAAAAAAAAAAAAAAAAAAAAAAAAAAAAAAAAAAAAAAAAAAAAAAAAAAAAAAAAAAAAAAAAAAAAAAAAAAAAAAAAAAAAAAAAAAAAAAAAAAAAAAAAAAAAAAAAAAAAAAAAAAAAAAAAAAAAAAAAAAAAAAAAAAAAAAAAAAAAAAAAAAAAAAAAAAAAAAAAAAAAAAAAAAAAAAAAAAAAAAAAAAAAAAAAAAAAAAAAAAAAAAAAAAAAAAAAAAAAAAAAAAAAAAAAAAAAAAAAAAAAAAAAAAAAAAAAAAAAAAAAAAAAAAAAAAAAAAAAAAAAAAAAAAAAAAAAAAAAAAAAAAAAAAAAAAAAAAAAAAAAAAAAAAAAAAAAAAAAAAAAAAAAAAAAAAAAAAAAAAAAAAAAAAAAAAAAAAAAAAAAAAAAAAAAAAAAAAAAAAAAAAAAAAAAAAAAAAAAAAAAAAAAAAAAAAAAAAAAAAAAAAAAAAAAAAAAAAAAAAAAAAAAAAAAAAAAAAAAAAAAAAAAAAAAAAAAAAAAAAAAAAAAAAAAAAAAAAAAAAAAAAAAAAAAAAAAAAAAAAAAAAAAAAAAAAAAAAAAAAAAAAAAAAAAAAAAAAAAAAAAAAAAAAAAAAAAAAAAAAAAAAAAAAAAAAAAAAAAAAAAAAAAAAAAAAAAAAAAAAAAAAAAAAAAAAAAAAAAAAAAAAAAAAAAAAAAAAAAAAAAAAAAAAAAAAAAAAAAAAAAAAAAAAAAAAAAAAAAAAAAAAAAAAAAAAAAAAAAAAAAAAAAAAAAAAAAAAAAAAAAAAAAAAAAAAAAAAAAAAAAAAAAAAAAAAAAAAAAAAAAAAAAAAAAAAAAAAAAAAAAAAAAAAAAAAAAAAAAAAAAAAAAAAAAAAAAAAAAAAAAAAAAAAAAAAAAAAAAAAAAAAAAAAAAAAAAAAAAAAAAAAAAAAAAAAAAAAAAAAAAAAAAAAAAAAAAAAAAAAAAAAAAAAAAAAAAAAAAAAAAAAAAAAAAAAAAAAAAAAAAAAAAAAAAAAAAAAAAAAAAAAAAAAAAAAAAAAAAAAAAAAAAAAAAAAAAAAAAAAAAAAAAAAAAAAAAAAAAAAAAAAAAAAAAAAAAAAAAAAAAAAAAAAAAAAAAAAAAAAAAAAAAAAAAAAAAAAAAAAAAAAAAAAAAAAAAAAAAAAAAAAAAAAAAAAAAAAAAAAAAAAAAAAAAAAAAAAAAAAAAAAAAAAAAAAAAAAAAAAAAAAAAAAAAAAAAAAAAAAAAAAAAAAAAAAAAAAAAAAAAAAAAAAAAAAAAAAAAAAAAAAAAAAAAAAAAAAAAAAAAAAAAAAAAAAAAAAAAAAAAAAAAAAAAAAAAAAAAAAAAAAAAAAAAAAAAAAAAAAAAAAAAAAAAAAAAAAAAAAAAAAAAAAAAAAAAAAAAAAAAAAAAAAAAAAAAAAAAAAAAAAAAAAAAAAAAAAAAAAAAAAAAAAAAAAAAAAAAAAAAAAAAAAAAAAAAAAAAAAAAAAAAAAAAAAAAAAAAAAAAAAAAAAAAAAAAAAAAAAAAAAAAAAAAAAAAAAAAAAAAAAAAAAAAAAAAAAAAAAAAAAAAAAAAAAAAAAAAAAAAAAAAAAAAAAAAAAAAAAAAAAAAAAAAAAAAAAAAAAAAAAAAAAAAAAAAAAAAAAAAAAAAAAAAAAAAAAAAAAAAAAAAAAAAAAAAAAAAAAAAAAAAAAAAAAAAAAAAAAAAAAAAAAAAAAAAAAAAAAAAAAAAAAAAAAAAAAAAAAAAAAAAAAAAAAAAAAAAAAAAAAAAAAAAAAAAAAAAAAAAAAAAAAAAAAAAAAAAAAAAAAAAAAAAAAAAAAAAAAAAAAAAAAAAAAAAAAAAAAAAAAAAAAAAAAAAAAAAAAAAAAAAAAAAAAAAAAAAAAAAAAAAAAAAAAAAAAAAAAAAAAAAAAAAAAAAAAAAAAAAAAAAAAAAAAAAAAAAAAAAAAAAAAAAAAAAAAAAAAAAAAAAAAAAAAAAAAAAAAAAAAAAAAAAAAAAAAAAAAAAAAAAAAAAAAAAAAAAAAAAAAAAAAAAAAAAAAAAAAAAAAAAAAAAAAAAAAAAAAAAAAAAAAAAAAAAAAAAAAAAAAAAAAAAAAAAAAAAAAAAAAAAAAAAAAAAAAAAAAAAAAAAAAAAAAAAAAAAAAAAAAAAAAAAAAAAAAAAAAAAAAAAAAAAAAAAAAAAAAAAAAAAAAAAAAAAAAAAAAAAAAAAAAAAAAAAAAAAAAAAAAAAAAAAAAAAAAAAAAAAAAAAAAAAAAAAAAAAAAAAAAAAAAAAAAAAAAAAAAAAAAAAAAAAAAAAAAAAAAAAAAAAAAAAAAAAAAAAAAAAAAAAAAAAAAAAAAAAAAAAAAAAAAAAAAAAAAAAAAAAAAAAAAAAAAAAAAAAAAAAAAAAAAAAAAAAAAAAAAAAAAAAAAAAAAAAAAAAAAAAAAAAAAAAAAAAAAAAAAAAAAAAAAAAAAAAAAAAAAAAAAAAAAAAAAAAAAAAAAAAAAAAAAAAAAAAAAAAAAAAAAAAAAAAAAAAAAAAAAAAAAAAAAAAAAAAAAPZYQI2bPLpXQIbFea6ROr1e9TjIdG1lDqYJyva99d5HWT8wAihX23BKqpt+oYnplrESrgCPaAnwFJeP3vbxAtt3u2Y=</c2pa:manifest></metadata>

<defs>
  <filter id="dw-blur" x="-20" y="18" width="135" height="92" filterUnits="userSpaceOnUse" color-interpolation-filters="sRGB">
    <feGaussianBlur stdDeviation="5"></feGaussianBlur>
  </filter>
  <radialGradient id="dw-light" cx="0" cy="0" r="1" gradientUnits="userSpaceOnUse" gradientTransform="translate(46.5 48) rotate(90) scale(32 73)">
    <stop stop-color="#cfe0ff"></stop>
    <stop offset="0.4" stop-color="#cfe0ff" stop-opacity="0.5"></stop>
    <stop offset="1" stop-color="#cfe0ff" stop-opacity="0"></stop>
  </radialGradient>
  <linearGradient id="dw-body" x1="43" y1="31" x2="43" y2="48" gradientUnits="userSpaceOnUse">
    <stop stop-color="white"></stop>
    <stop offset="1" stop-color="#C5C5C5"></stop>
  </linearGradient>
</defs>
<g class="bob">
  <g id="back-leg-2" class="hip hip-rl far p4">
    <path d="M71.9192 34.7663C70.9546 35.6401 70.5599 37.5448 70.4232 38.4396C70.3767 38.7434 70.4914 39.0453 70.715 39.2561L88.2286 55.7689C88.429 55.9579 88.5426 56.2211 88.5426 56.4965V57.143C88.5426 57.6952 88.9903 58.143 89.5426 58.143H93.7764C94.3287 58.143 94.7764 57.6952 94.7764 57.143V56.4205C94.7764 56.1905 94.6971 55.9676 94.5519 55.7892L76.8696 34.0653C76.6942 33.8498 76.4377 33.7167 76.1599 33.7138C75.2198 33.7041 72.9958 33.7913 71.9192 34.7663Z" fill="#e6e9f0"></path>
    <g class="knee knee-rl p4">
      <path d="M90.7052 56.0649H93.2568C93.8091 56.0649 94.2568 56.5127 94.2568 57.0649V58.9526C94.2568 59.2744 94.102 59.5765 93.8408 59.7644L74.1992 73.1995C73.9245 73.3873 73.7613 73.6995 73.7637 74.0323L73.7745 75.4665L71.7598 75.5V72.9847C71.7598 72.6786 71.9 72.3894 72.1403 72.1997L89.3343 58.6319C89.5689 58.442 89.7052 58.1563 89.7052 57.8545V57.0649C89.7052 56.5127 90.1529 56.0649 90.7052 56.0649Z" fill="#373F4E"></path>
      <circle cx="72.7598" cy="77.5" r="2.5" fill="#373F4E"></circle>
    </g>
  </g>
  <g id="back-leg-1" class="hip hip-fl far p2">
    <path d="M11.6595 33.7663C10.6948 34.6401 10.3002 36.5448 10.1634 37.4396C10.117 37.7434 10.2316 38.0453 10.4552 38.2561L27.9689 54.7689C28.1692 54.9579 28.2828 55.2211 28.2828 55.4965V56.143C28.2828 56.6952 28.7306 57.143 29.2828 57.143H33.5166C34.0689 57.143 34.5166 56.6952 34.5166 56.143V55.4205C34.5166 55.1905 34.4373 54.9676 34.2922 54.7892L16.6099 33.0653C16.4344 32.8498 16.178 32.7167 15.9001 32.7138C14.96 32.7041 12.736 32.7913 11.6595 33.7663Z" fill="#e6e9f0"></path>
    <g class="knee knee-fl p2">
      <path d="M30.4454 55.0649H32.9971C33.5494 55.0649 33.9971 55.5127 33.9971 56.0649V57.9526C33.9971 58.2744 33.8422 58.5765 33.581 58.7644L13.9394 72.1995C13.6647 72.3873 13.5015 72.6995 13.504 73.0323L13.5147 74.4665L11.5 74.5V71.9847C11.5 71.6786 11.6402 71.3894 11.8805 71.1997L29.0745 57.6319C29.3091 57.442 29.4454 57.1563 29.4454 56.8545V56.0649C29.4454 55.5127 29.8932 55.0649 30.4454 55.0649Z" fill="#373F4E"></path>
      <circle cx="12.5" cy="76.5" r="2.5" fill="#373F4E"></circle>
    </g>
  </g>
  <g class="glow" filter="url(#dw-blur)">
    <path d="M34.3333 48H58.6667L83 80H10L34.3333 48Z" fill="url(#dw-light)"></path>
  </g>
  <g id="Body">
    <path d="M3.00015 31H81.9702C83.6271 31 84.9702 32.3431 84.9702 34V39.1417C84.9702 39.3797 84.9419 39.6169 84.8858 39.8482L83.4661 45.7066C83.14 47.0523 81.9352 48 80.5505 48H5.99968C4.85002 48 3.80148 47.343 3.30006 46.3084L0.300529 40.1197C0.102852 39.7119 0.000152588 39.2645 0.000152588 38.8113V34C0.000152588 32.3431 1.3433 31 3.00015 31Z" fill="url(#dw-body)"></path>
    <path d="M20 32C21.1046 32 22 32.8954 22 34V35H57.417L62.625 33H69.2695C69.6155 32.4027 70.2601 32 71 32H82C83.1046 32 84 32.8954 84 34V40.7969C84 41.2178 83.8668 41.6277 83.6201 41.9688L80.5791 46.1719C80.203 46.6917 79.6006 47 78.959 47H71C69.8954 47 69 46.1046 69 45V36H62.625L57.417 38H22V45C22 46.1046 21.1046 47 20 47H12.041C11.3994 47 10.797 46.6917 10.4209 46.1719L7.37988 41.9688C7.13319 41.6277 7.00001 41.2178 7 40.7969V34C7 32.8954 7.89543 32 9 32H20Z" fill="#070A10"></path>
    <g id="Head">
      <rect width="6" height="5" transform="matrix(-1 0 0 1 69 18)" fill="#3B79D5"></rect>
      <path d="M52 24C52 22.8954 51.1046 22 50 22H41C39.8954 22 39 22.8954 39 24V31H52V24Z" fill="#373F4E"></path>
      <path d="M72 9C72.5523 9 73 9.44772 73 10V12C73.5523 12 74 12.4477 74 13V16C74 16.5523 73.5523 17 73 17H72V24C73.1046 24 74 24.8954 74 26V31H58V26C58 24.8954 58.8954 24 60 24V17H59C58.4477 17 58 16.5523 58 16V13C58 12.4823 58.3933 12.0562 58.8975 12.0049L59 12V10C59 9.44772 59.4477 9 60 9H72ZM63 24H69V17H63V24Z" fill="#373F4E"></path>
      <path d="M19 27H33C34.1046 27 35 27.8954 35 29V31H4V29C4 27.8954 4.89543 27 6 27H7V16H2.00391C1.44961 15.9996 1 15.5684 1 15.0371V11.4287C1.00015 5.11695 6.37288 0.000103929 13 0C19.6272 4.75791e-08 24.9999 5.11689 25 11.4287V15.0371C25 15.5686 24.5506 15.9998 23.9961 16H19V27ZM13 2.28613C7.69842 2.28625 3.60963 6.95069 3.60938 12H7.2627V10C7.26283 7.23863 9.59814 5 12.4795 5H13.5225C16.4038 5.00007 18.7391 7.23867 18.7393 10V12H22.3906C22.3904 6.95062 18.3017 2.28613 13 2.28613Z" fill="#373F4E"></path>
    </g>
  </g>
  <g id="front-leg-2" class="hip hip-rl p3">
    <path d="M71.9192 34.7663C70.9546 35.6401 70.5599 37.5448 70.4232 38.4396C70.3767 38.7434 70.4914 39.0453 70.715 39.2561L88.2286 55.7689C88.429 55.9579 88.5426 56.2211 88.5426 56.4965V57.143C88.5426 57.6952 88.9903 58.143 89.5426 58.143H93.7764C94.3287 58.143 94.7764 57.6952 94.7764 57.143V56.4205C94.7764 56.1905 94.6971 55.9676 94.5519 55.7892L76.8696 34.0653C76.6942 33.8498 76.4377 33.7167 76.1599 33.7138C75.2198 33.7041 72.9958 33.7913 71.9192 34.7663Z" fill="white"></path>
    <g class="knee knee-rl p3">
      <path d="M90.7052 56.0649H93.2568C93.8091 56.0649 94.2568 56.5127 94.2568 57.0649V58.9526C94.2568 59.2744 94.102 59.5765 93.8408 59.7644L74.1992 73.1995C73.9245 73.3873 73.7613 73.6995 73.7637 74.0323L73.7745 75.4665L71.7598 75.5V72.9847C71.7598 72.6786 71.9 72.3894 72.1403 72.1997L89.3343 58.6319C89.5689 58.442 89.7052 58.1563 89.7052 57.8545V57.0649C89.7052 56.5127 90.1529 56.0649 90.7052 56.0649Z" fill="#373F4E"></path>
      <circle cx="72.7598" cy="77.5" r="2.5" fill="#373F4E"></circle>
    </g>
  </g>
  <g id="front-leg-1" class="hip hip-fl p1">
    <path d="M11.6595 33.7663C10.6948 34.6401 10.3002 36.5448 10.1634 37.4396C10.117 37.7434 10.2316 38.0453 10.4552 38.2561L27.9689 54.7689C28.1692 54.9579 28.2828 55.2211 28.2828 55.4965V56.143C28.2828 56.6952 28.7306 57.143 29.2828 57.143H33.5166C34.0689 57.143 34.5166 56.6952 34.5166 56.143V55.4205C34.5166 55.1905 34.4373 54.9676 34.2922 54.7892L16.6099 33.0653C16.4344 32.8498 16.178 32.7167 15.9001 32.7138C14.96 32.7041 12.736 32.7913 11.6595 33.7663Z" fill="white"></path>
    <g class="knee knee-fl p1">
      <path d="M30.4454 55.0649H32.9971C33.5494 55.0649 33.9971 55.5127 33.9971 56.0649V57.9526C33.9971 58.2744 33.8422 58.5765 33.581 58.7644L13.9394 72.1995C13.6647 72.3873 13.5015 72.6995 13.504 73.0323L13.5147 74.4665L11.5 74.5V71.9847C11.5 71.6786 11.6402 71.3894 11.8805 71.1997L29.0745 57.6319C29.3091 57.442 29.4454 57.1563 29.4454 56.8545V56.0649C29.4454 55.5127 29.8932 55.0649 30.4454 55.0649Z" fill="#373F4E"></path>
      <circle cx="12.5" cy="76.5" r="2.5" fill="#373F4E"></circle>
    </g>
  </g>
</g>
</svg>