<svg width="93" height="90" viewBox="0 0 93 90" fill="none" xmlns="http://www.w3.org/2000/svg">
<g id="dog">
<g id="back-leg 2">
<circle id="part3" cx="62.7598" cy="77.5" r="2.5" fill="#373F4E"/>
<path id="part2" d="M80.7052 56.0649H83.2568C83.8091 56.0649 84.2568 56.5127 84.2568 57.0649V58.9526C84.2568 59.2744 84.102 59.5765 83.8408 59.7644L64.1992 73.1995C63.9245 73.3873 63.7613 73.6995 63.7637 74.0323L63.7745 75.4665L61.7598 75.5V72.9847C61.7598 72.6786 61.9 72.3894 62.1403 72.1997L79.3343 58.6319C79.5689 58.442 79.7052 58.1563 79.7052 57.8545V57.0649C79.7052 56.5127 80.1529 56.0649 80.7052 56.0649Z" fill="#373F4E"/>
<path id="part1" d="M61.9192 34.7663C60.9546 35.6401 60.5599 37.5448 60.4232 38.4396C60.3767 38.7434 60.4914 39.0453 60.715 39.2561L78.2286 55.7689C78.429 55.9579 78.5426 56.2211 78.5426 56.4965V57.143C78.5426 57.6952 78.9903 58.143 79.5426 58.143H83.7764C84.3287 58.143 84.7764 57.6952 84.7764 57.143V56.4205C84.7764 56.1905 84.6971 55.9676 84.5519 55.7892L66.8696 34.0653C66.6942 33.8498 66.4377 33.7167 66.1599 33.7138C65.2198 33.7041 62.9958 33.7913 61.9192 34.7663Z" fill="white"/>
</g>
<g id="back-leg 1">
<circle id="part3_2" cx="12.5" cy="76.5" r="2.5" fill="#373F4E"/>
<path id="part2_2" d="M30.4454 55.0649H32.9971C33.5494 55.0649 33.9971 55.5127 33.9971 56.0649V57.9526C33.9971 58.2744 33.8422 58.5765 33.581 58.7644L13.9394 72.1995C13.6647 72.3873 13.5015 72.6995 13.504 73.0323L13.5147 74.4665L11.5 74.5V71.9847C11.5 71.6786 11.6402 71.3894 11.8805 71.1997L29.0745 57.6319C29.3091 57.442 29.4454 57.1563 29.4454 56.8545V56.0649C29.4454 55.5127 29.8932 55.0649 30.4454 55.0649Z" fill="#373F4E"/>
<path id="part1_2" d="M11.6595 33.7663C10.6948 34.6401 10.3002 36.5448 10.1634 37.4396C10.117 37.7434 10.2316 38.0453 10.4552 38.2561L27.9689 54.7689C28.1692 54.9579 28.2828 55.2211 28.2828 55.4965V56.143C28.2828 56.6952 28.7306 57.143 29.2828 57.143H33.5166C34.0689 57.143 34.5166 56.6952 34.5166 56.143V55.4205C34.5166 55.1905 34.4373 54.9676 34.2922 54.7892L16.6099 33.0653C16.4344 32.8498 16.178 32.7167 15.9001 32.7138C14.96 32.7041 12.736 32.7913 11.6595 33.7663Z" fill="white"/>
</g>
<g id="light" filter="url(#filter0_f_566_19168)">
<path d="M34.3333 48H58.6667L83 80H10L34.3333 48Z" fill="url(#paint0_radial_566_19168)"/>
</g>
<g id="Body">
<g id="body">
<path id="Rectangle 162" d="M3.00015 31H71.9702C73.6271 31 74.9702 32.3431 74.9702 34V39.1417C74.9702 39.3797 74.9419 39.6169 74.8858 39.8482L73.4661 45.7066C73.14 47.0523 71.9352 48 70.5505 48H5.99968C4.85002 48 3.80148 47.343 3.30006 46.3084L0.300529 40.1197C0.102852 39.7119 0.000152588 39.2645 0.000152588 38.8113V34C0.000152588 32.3431 1.3433 31 3.00015 31Z" fill="url(#paint1_linear_566_19168)"/>
<path id="Union" d="M20 32C21.1046 32 22 32.8954 22 34V35H47.417L52.625 33H59.2695C59.6155 32.4027 60.2601 32 61 32H72C73.1046 32 74 32.8954 74 34V40.7969C74 41.2178 73.8668 41.6277 73.6201 41.9688L70.5791 46.1719C70.203 46.6917 69.6006 47 68.959 47H61C59.8954 47 59 46.1046 59 45V36H52.625L47.417 38H22V45C22 46.1046 21.1046 47 20 47H12.041C11.3994 47 10.797 46.6917 10.4209 46.1719L7.37988 41.9688C7.13319 41.6277 7.00001 41.2178 7 40.7969V34C7 32.8954 7.89543 32 9 32H20Z" fill="#070A10"/>
</g>
<g id="Head">
<rect id="Rectangle 168" width="6" height="5" transform="matrix(-1 0 0 1 69 18)" fill="#3B79D5"/>
<path id="Rectangle 170" d="M44 24C44 22.8954 43.1046 22 42 22H35C33.8954 22 33 22.8954 33 24V31H44V24Z" fill="#373F4E"/>
<path id="Union_2" d="M72 9C72.5523 9 73 9.44772 73 10V12C73.5523 12 74 12.4477 74 13V16C74 16.5523 73.5523 17 73 17H72V24C73.1046 24 74 24.8954 74 26V31H58V26C58 24.8954 58.8954 24 60 24V17H59C58.4477 17 58 16.5523 58 16V13C58 12.4823 58.3933 12.0562 58.8975 12.0049L59 12V10C59 9.44772 59.4477 9 60 9H72ZM63 24H69V17H63V24Z" fill="#373F4E"/>
<path id="Union_3" d="M19 27H29C30.1046 27 31 27.8954 31 29V31H4V29C4 27.8954 4.89543 27 6 27H7V16H2.00391C1.44961 15.9996 1 15.5684 1 15.0371V11.4287C1.00015 5.11695 6.37288 0.000103929 13 0C19.6272 4.75791e-08 24.9999 5.11689 25 11.4287V15.0371C25 15.5686 24.5506 15.9998 23.9961 16H19V27ZM13 2.28613C7.69842 2.28625 3.60963 6.95069 3.60938 12H7.2627V10C7.26283 7.23863 9.59814 5 12.4795 5H13.5225C16.4038 5.00007 18.7391 7.23867 18.7393 10V12H22.3906C22.3904 6.95062 18.3017 2.28613 13 2.28613Z" fill="#373F4E"/>
</g>
</g>
<g id="front-leg 2">
<circle id="part3_3" cx="62.7598" cy="77.5" r="2.5" fill="#373F4E"/>
<path id="part2_3" d="M80.7052 56.0649H83.2568C83.8091 56.0649 84.2568 56.5127 84.2568 57.0649V58.9526C84.2568 59.2744 84.102 59.5765 83.8408 59.7644L64.1992 73.1995C63.9245 73.3873 63.7613 73.6995 63.7637 74.0323L63.7745 75.4665L61.7598 75.5V72.9847C61.7598 72.6786 61.9 72.3894 62.1403 72.1997L79.3343 58.6319C79.5689 58.442 79.7052 58.1563 79.7052 57.8545V57.0649C79.7052 56.5127 80.1529 56.0649 80.7052 56.0649Z" fill="#373F4E"/>
<path id="part1_3" d="M61.9192 34.7663C60.9546 35.6401 60.5599 37.5448 60.4232 38.4396C60.3767 38.7434 60.4914 39.0453 60.715 39.2561L78.2286 55.7689C78.429 55.9579 78.5426 56.2211 78.5426 56.4965V57.143C78.5426 57.6952 78.9903 58.143 79.5426 58.143H83.7764C84.3287 58.143 84.7764 57.6952 84.7764 57.143V56.4205C84.7764 56.1905 84.6971 55.9676 84.5519 55.7892L66.8696 34.0653C66.6942 33.8498 66.4377 33.7167 66.1599 33.7138C65.2198 33.7041 62.9958 33.7913 61.9192 34.7663Z" fill="white"/>
</g>
<g id="front-leg 1">
<circle id="part3_4" cx="12.5" cy="76.5" r="2.5" fill="#373F4E"/>
<path id="part2_4" d="M30.4454 55.0649H32.9971C33.5494 55.0649 33.9971 55.5127 33.9971 56.0649V57.9526C33.9971 58.2744 33.8422 58.5765 33.581 58.7644L13.9394 72.1995C13.6647 72.3873 13.5015 72.6995 13.504 73.0323L13.5147 74.4665L11.5 74.5V71.9847C11.5 71.6786 11.6402 71.3894 11.8805 71.1997L29.0745 57.6319C29.3091 57.442 29.4454 57.1563 29.4454 56.8545V56.0649C29.4454 55.5127 29.8932 55.0649 30.4454 55.0649Z" fill="#373F4E"/>
<path id="part1_4" d="M11.6595 33.7663C10.6948 34.6401 10.3002 36.5448 10.1634 37.4396C10.117 37.7434 10.2316 38.0453 10.4552 38.2561L27.9689 54.7689C28.1692 54.9579 28.2828 55.2211 28.2828 55.4965V56.143C28.2828 56.6952 28.7306 57.143 29.2828 57.143H33.5166C34.0689 57.143 34.5166 56.6952 34.5166 56.143V55.4205C34.5166 55.1905 34.4373 54.9676 34.2922 54.7892L16.6099 33.0653C16.4344 32.8498 16.178 32.7167 15.9001 32.7138C14.96 32.7041 12.736 32.7913 11.6595 33.7663Z" fill="white"/>
</g>
</g>
<defs>
<filter id="filter0_f_566_19168" x="0" y="38" width="93" height="52" filterUnits="userSpaceOnUse" color-interpolation-filters="sRGB">
<feFlood flood-opacity="0" result="BackgroundImageFix"/>
<feBlend mode="normal" in="SourceGraphic" in2="BackgroundImageFix" result="shape"/>
<feGaussianBlur stdDeviation="5" result="effect1_foregroundBlur_566_19168"/>
</filter>
<radialGradient id="paint0_radial_566_19168" cx="0" cy="0" r="1" gradientUnits="userSpaceOnUse" gradientTransform="translate(46.5 48) rotate(90) scale(32 73)">
<stop stop-color="white"/>
<stop offset="0.4" stop-color="white" stop-opacity="0.5"/>
<stop offset="1" stop-color="white" stop-opacity="0"/>
</radialGradient>
<linearGradient id="paint1_linear_566_19168" x1="43" y1="31" x2="43" y2="48" gradientUnits="userSpaceOnUse">
<stop stop-color="white"/>
<stop offset="1" stop-color="#C5C5C5"/>
</linearGradient>
</defs>
</svg>
