<svg width="24" height="24" viewBox="0 0 24 24" fill="none" xmlns="http://www.w3.org/2000/svg">
<path d="M18.1929 7.50711C18.5834 7.11659 18.5834 6.48342 18.1929 6.0929L17.9071 5.80711C17.5166 5.41659 16.8834 5.41659 16.4929 5.80711L12 10.3L7.50711 5.80711C7.11658 5.41659 6.48342 5.41659 6.09289 5.80711L5.8071 6.0929C5.41658 6.48342 5.41658 7.11659 5.80711 7.50711L10.3 12L5.80711 16.4929C5.41658 16.8834 5.41658 17.5166 5.80711 17.9071L6.09289 18.1929C6.48342 18.5834 7.11658 18.5834 7.50711 18.1929L12 13.7L16.4929 18.1929C16.8834 18.5834 17.5166 18.5834 17.9071 18.1929L18.1929 17.9071C18.5834 17.5166 18.5834 16.8834 18.1929 16.4929L13.7 12L18.1929 7.50711Z" fill="#070A10"/>
</svg>
