<svg width="20" height="20" viewBox="0 0 20 20" fill="none" xmlns="http://www.w3.org/2000/svg">
<path d="M11.9132 14.6216C12.7635 14.269 13.7392 14.6722 14.0918 15.5225C14.4442 16.3727 14.0403 17.3476 13.1901 17.7002C12.2053 18.1086 11.1268 18.3333 10 18.3333C8.8732 18.3333 7.79473 18.1086 6.8099 17.7002C5.95969 17.3476 5.55575 16.3727 5.9082 15.5225C6.26079 14.6722 7.23648 14.269 8.08675 14.6216C8.67389 14.865 9.3191 15 10 15C10.6809 15 11.3261 14.865 11.9132 14.6216ZM1.66667 10C1.66667 8.8732 1.89143 7.79473 2.2998 6.8099C2.65237 5.95969 3.62732 5.55575 4.47754 5.9082C5.32781 6.26079 5.73101 7.23648 5.37842 8.08675C5.13499 8.67389 5 9.3191 5 10C5 10.6809 5.13499 11.3261 5.37842 11.9132C5.73101 12.7635 5.32781 13.7392 4.47754 14.0918C3.62732 14.4442 2.65237 14.0403 2.2998 13.1901C1.89143 12.2053 1.66667 11.1268 1.66667 10ZM15 10C15 9.3191 14.865 8.67389 14.6216 8.08675C14.269 7.23648 14.6722 6.26079 15.5225 5.9082C16.3727 5.55575 17.3476 5.95969 17.7002 6.8099C18.1086 7.79473 18.3333 8.8732 18.3333 10C18.3333 11.1268 18.1086 12.2053 17.7002 13.1901C17.3476 14.0403 16.3727 14.4442 15.5225 14.0918C14.6722 13.7392 14.269 12.7635 14.6216 11.9132C14.865 11.3261 15 10.6809 15 10ZM10 1.66667C11.1268 1.66667 12.2053 1.89143 13.1901 2.2998C14.0403 2.65237 14.4442 3.62732 14.0918 4.47754C13.7392 5.32781 12.7635 5.73101 11.9132 5.37842C11.3261 5.13499 10.6809 5 10 5C9.3191 5 8.67389 5.13499 8.08675 5.37842C7.23648 5.73101 6.26079 5.32781 5.9082 4.47754C5.55575 3.62732 5.95969 2.65237 6.8099 2.2998C7.79473 1.89143 8.8732 1.66667 10 1.66667Z" fill="#6AA7E7"/>
</svg>
